<svg xmlns="http://www.w3.org/2000/svg" width="933.333" height="933.333" preserveAspectRatio="xMidYMid meet" version="1.0" viewBox="0 0 700 700"><metadata>Created by potrace 1.14, written by Peter Selinger 2001-2017</metadata><g fill="#000" stroke="none"><path d="M3280 6994 c-19 -2 -84 -9 -145 -14 -578 -56 -1180 -283 -1660 -625 -237 -169 -531 -446 -709 -670 -416 -521 -673 -1147 -748 -1820 -17 -155 -17 -575 0 -730 52 -469 198 -931 418 -1327 290 -523 731 -983 1239 -1294 439 -269 920 -432 1460 -496 145 -17 576 -17 730 0 822 91 1556 447 2131 1034 203 206 348 390 487 618 274 449 433 916 499 1465 16 136 16 592 0 730 -86 725 -352 1347 -803 1885 -122 145 -351 370 -494 484 -510 407 -1117 661 -1775 742 -117 15 -553 27 -630 18z m-1378 -2093 c84 -29 146 -68 214 -137 70 -69 135 -188 155 -281 7 -32 15 -62 19 -66 4 -4 25 16 48 45 57 74 205 216 283 271 93 66 238 133 354 164 87 23 120 26 260 27 168 1 225 -9 340 -56 75 -31 206 -121 241 -164 66 -84 112 -192 129 -307 4 -26 10 -47 14 -47 3 0 22 24 41 52 52 77 212 241 303 309 201 151 462 231 712 216 168 -10 297 -54 420 -142 107 -76 168 -168 207 -313 28 -104 30 -324 4 -467 -48 -267 -129 -538 -380 -1260 -87 -253 -117 -370 -123 -486 -5 -82 -3 -102 15 -141 28 -63 59 -82 137 -81 127 1 255 89 361 249 90 136 188 362 254 591 12 39 27 79 34 88 18 25 93 31 140 11 l39 -16 -6 -58 c-13 -143 -139 -453 -264 -649 -105 -166 -284 -307 -439 -348 -120 -31 -286 -15 -392 39 -194 99 -297 349 -248 596 10 47 78 265 151 485 273 814 358 1187 326 1429 -21 155 -73 250 -165 299 -60 32 -239 32 -346 -2 -138 -43 -267 -121 -389 -235 -122 -114 -288 -339 -366 -494 -64 -129 -114 -303 -320 -1132 -113 -451 -211 -835 -219 -853 -20 -49 -75 -108 -121 -128 -49 -22 -152 -25 -199 -5 -48 20 -88 77 -93 134 -4 37 42 234 225 967 127 506 240 970 252 1030 31 154 38 387 16 486 -30 136 -98 220 -201 249 -56 16 -203 8 -290 -16 -79 -21 -204 -84 -286 -145 -162 -120 -373 -379 -479 -590 -70 -138 -91 -213 -371 -1334 -111 -444 -168 -653 -185 -682 -45 -77 -114 -113 -216 -113 -67 0 -104 16 -142 60 -60 72 -74 -3 228 1207 151 604 280 1135 286 1180 7 45 11 133 9 195 -3 97 -8 121 -29 162 -45 88 -137 111 -239 60 -122 -61 -216 -254 -336 -689 -24 -90 -49 -174 -54 -188 -13 -34 -40 -47 -99 -47 -63 0 -96 24 -94 67 2 77 153 557 213 675 91 181 218 300 369 344 63 19 219 11 292 -15z" transform="translate(0.000000,700.000000) scale(0.100000,-0.100000)"/></g></svg>